<?xml version="1.0" standalone="no"?>
<!DOCTYPE svg PUBLIC "-//W3C//DTD SVG 20010904//EN"
 "http://www.w3.org/TR/2001/REC-SVG-20010904/DTD/svg10.dtd">
<svg version="1.0" xmlns="http://www.w3.org/2000/svg"
 width="1280.000000pt" height="741.000000pt" viewBox="0 0 1280.000000 741.000000"
 preserveAspectRatio="xMidYMid meet">

<g transform="translate(0.000000,741.000000) scale(0.100000,-0.100000)"
fill="#000000" stroke="none">
<path d="M8685 7381 c-116 -43 -394 -186 -522 -268 -208 -134 -226 -143 -533
-258 -189 -70 -333 -131 -426 -180 -165 -86 -422 -197 -510 -219 -34 -9 -77
-23 -97 -31 -51 -21 -116 -19 -312 10 -332 49 -671 57 -915 20 -280 -42 -686
-152 -846 -229 -198 -95 -476 -286 -639 -438 -44 -41 -91 -81 -105 -88 -35
-19 -270 -26 -341 -10 -84 19 -686 23 -829 5 -63 -8 -164 -17 -225 -20 -60 -4
-262 -27 -449 -51 -348 -47 -387 -48 -455 -16 -61 28 -71 68 -71 287 0 105 -5
229 -10 275 -13 104 -53 257 -85 327 -52 114 -179 208 -297 220 -84 8 -505
-52 -575 -82 -59 -26 -85 -91 -133 -340 -5 -27 -14 -115 -20 -194 -17 -234
-49 -348 -173 -616 -72 -157 -95 -236 -106 -360 -26 -294 73 -582 260 -761
119 -113 192 -159 331 -205 90 -31 101 -32 343 -40 384 -14 501 -30 707 -100
194 -65 223 -69 460 -68 187 1 223 -1 291 -19 91 -25 142 -53 218 -121 108
-96 153 -197 164 -367 3 -55 13 -181 21 -281 22 -274 7 -335 -129 -493 -42
-49 -61 -78 -47 -70 l24 13 -25 -41 c-66 -112 -219 -262 -329 -324 -219 -124
-466 -386 -609 -645 -30 -54 -67 -121 -83 -150 -96 -174 -115 -534 -43 -818
36 -141 71 -208 169 -320 150 -171 221 -226 353 -272 73 -25 89 -27 248 -28
166 0 172 1 262 32 170 59 429 203 596 330 82 62 217 193 279 271 48 60 185
263 239 355 39 64 160 145 352 234 227 105 351 154 507 203 74 24 173 58 220
75 114 44 169 49 328 31 179 -21 921 -22 1202 -1 250 18 836 94 1011 130 36 8
121 36 190 64 68 27 219 79 334 116 388 122 465 157 690 305 77 51 169 107
203 123 l64 30 301 -6 c210 -4 326 -11 382 -22 46 -9 121 -14 175 -13 99 2
147 2 530 -5 188 -3 257 -8 345 -26 61 -12 193 -35 295 -51 101 -17 206 -37
234 -45 27 -8 77 -15 110 -15 65 0 704 -106 852 -141 182 -43 317 -9 423 107
40 43 56 71 72 127 19 62 21 76 10 116 -7 26 -8 47 -3 49 5 1 50 30 101 64 67
45 99 73 118 105 72 124 38 212 -111 282 -35 17 -67 34 -69 38 -3 4 -1 51 5
103 14 126 0 187 -53 245 -48 53 -114 88 -209 114 -111 29 -176 34 -281 21
-90 -12 -331 -23 -509 -23 -83 0 -89 2 -225 62 -77 34 -153 70 -170 80 -169
102 -224 137 -249 158 -16 13 -64 42 -106 63 -42 21 -130 71 -196 111 -65 40
-155 94 -198 121 -79 48 -79 48 -42 48 28 0 54 -12 115 -55 215 -151 351 -162
552 -44 86 50 161 132 189 207 45 117 10 257 -85 339 -44 38 -109 74 -170 93
-22 7 -44 16 -48 20 -15 14 22 38 70 45 26 4 73 13 103 21 30 7 138 27 240 45
200 34 262 54 306 100 25 26 29 38 29 87 0 31 -6 84 -14 117 -18 76 -11 102
39 160 22 25 40 50 40 55 0 23 -56 70 -117 99 -79 38 -306 225 -429 354 -98
101 -153 182 -269 392 -125 226 -171 327 -195 430 -28 122 -46 146 -160 220
-54 35 -146 102 -206 149 -145 115 -182 129 -349 130 -71 1 -173 -5 -225 -12
-65 -9 -188 -12 -390 -10 l-295 3 3 68 c3 54 0 72 -13 87 -14 15 -16 30 -10
77 4 36 2 70 -5 88 -31 81 -152 155 -255 155 -33 -1 -82 -9 -110 -19z m1348
-540 c101 -26 134 -45 252 -142 56 -46 130 -96 168 -114 l69 -32 -74 -16 c-40
-9 -102 -23 -138 -32 -36 -9 -155 -39 -265 -67 -110 -27 -238 -63 -285 -79
-47 -16 -121 -39 -164 -50 -102 -26 -408 -137 -509 -183 -42 -20 -102 -41
-132 -47 -31 -5 -93 -28 -140 -51 -47 -22 -104 -43 -127 -45 -85 -9 -294 87
-361 167 -54 64 -16 96 139 115 60 8 125 19 144 25 19 6 67 15 105 21 196 29
777 204 1045 313 126 52 334 155 327 162 -2 3 -40 -2 -83 -10 -163 -30 -301
-67 -1139 -310 -561 -162 -553 -159 -615 -254 l-31 -49 -62 9 c-34 5 -204 26
-377 48 -315 40 -448 62 -477 79 -32 18 157 72 349 101 134 20 312 82 556 194
64 29 187 85 273 125 l156 71 129 12 c103 9 163 9 289 -2 139 -11 195 -10 420
4 187 12 278 21 325 35 84 25 139 25 233 2z m615 -386 c12 -186 40 -285 141
-492 95 -193 167 -300 280 -414 113 -112 222 -187 392 -269 68 -33 133 -66
143 -75 19 -15 19 -16 -8 -44 -16 -16 -40 -34 -55 -40 -29 -12 -217 -56 -456
-106 -88 -18 -207 -47 -265 -63 -58 -16 -172 -42 -255 -56 -275 -50 -348 -65
-655 -135 -409 -94 -433 -97 -501 -77 -100 29 -183 99 -349 296 -190 227 -260
335 -351 545 -38 86 -54 139 -60 190 -4 38 -15 96 -24 129 -12 42 -13 62 -6
69 6 6 44 14 84 18 40 4 102 16 138 27 35 11 93 23 129 27 40 5 162 42 320 97
140 49 298 100 351 113 54 14 118 34 144 45 26 11 100 35 164 54 138 40 414
142 500 185 87 44 129 52 166 32 24 -14 30 -24 33 -56z m-9928 -41 c17 -50 7
-132 -23 -198 -26 -57 -91 -136 -112 -136 -13 0 -25 65 -25 129 1 20 11 77 24
126 21 79 27 90 47 93 13 2 28 8 34 13 20 20 44 9 55 -27z m348 15 c71 -24 84
-166 26 -283 -49 -101 -160 -196 -228 -196 -75 0 -75 154 1 351 37 96 77 139
130 139 22 0 54 -5 71 -11z m-548 -48 c0 -11 -13 -53 -30 -94 -16 -42 -30 -87
-30 -101 0 -44 -21 -124 -36 -136 -11 -10 -16 -7 -25 16 -33 85 47 334 108
334 7 0 13 -9 13 -19z m5345 -31 c116 -5 239 -13 275 -19 36 -6 182 -22 325
-36 385 -38 618 -83 628 -123 12 -43 17 -79 37 -260 23 -214 67 -448 99 -533
13 -35 51 -91 99 -150 42 -52 98 -123 124 -159 25 -36 92 -121 148 -190 67
-83 117 -157 149 -220 26 -52 69 -134 94 -181 71 -129 90 -213 91 -394 0 -133
-3 -162 -28 -260 -15 -60 -63 -202 -106 -315 -121 -320 -132 -360 -151 -572
-18 -208 -3 -327 67 -533 42 -123 154 -258 287 -347 l39 -26 -54 -15 c-29 -9
-100 -27 -156 -41 -134 -33 -287 -81 -382 -118 -41 -17 -120 -39 -175 -50
-196 -38 -541 -88 -612 -88 -39 0 -102 -7 -140 -16 -40 -9 -108 -15 -168 -14
-55 0 -185 -2 -290 -5 -104 -3 -280 -7 -390 -9 -110 -2 -229 -8 -265 -15 -96
-16 -220 -12 -220 8 0 3 66 38 148 78 279 135 508 312 552 427 10 26 6 24 -43
-20 -51 -47 -155 -109 -165 -99 -3 2 13 25 34 50 84 98 103 126 124 182 50
132 63 283 35 398 -8 33 -14 83 -15 110 0 117 -87 360 -212 594 -129 245 -235
358 -413 442 -258 121 -647 144 -960 54 -284 -81 -722 -383 -1089 -751 -105
-105 -200 -196 -212 -202 -21 -11 -21 -9 -27 124 -4 74 -18 207 -31 297 -21
139 -24 189 -21 352 1 105 8 211 15 235 21 77 111 312 150 390 20 41 63 145
95 230 66 178 94 229 202 373 43 57 132 182 198 277 166 239 228 321 263 347
16 12 77 67 134 121 216 205 564 430 768 496 273 89 542 147 825 180 56 6 110
5 320 -4z m-5384 -553 c60 -40 73 -98 73 -327 -1 -273 -44 -563 -110 -739 -62
-163 -142 -184 -200 -53 -41 93 -55 168 -61 337 -7 209 5 301 56 414 21 47 56
145 77 216 51 175 85 206 165 152z m11085 -835 c-8 -16 -21 -34 -29 -41 -24
-19 -192 -58 -332 -75 -71 -10 -148 -21 -170 -26 -22 -5 -49 -9 -60 -9 -35 1
18 17 170 54 77 19 201 54 275 79 166 54 165 54 146 18z m-2416 -273 c78 -50
103 -57 55 -13 -74 67 -135 128 -135 136 0 8 179 -109 271 -176 19 -15 64 -33
100 -40 l64 -14 -47 -1 c-60 -1 -71 -18 -16 -25 24 -3 54 -7 68 -9 16 -2 8 -6
-25 -11 -76 -12 -80 -13 -64 -33 13 -15 11 -16 -21 -9 -28 5 -32 4 -22 -6 9
-9 59 -13 177 -14 91 0 167 -3 170 -6 13 -12 -127 -28 -246 -28 -107 0 -132 4
-182 24 -67 28 -154 92 -193 143 -29 38 -24 37 40 -9 72 -52 59 -29 -36 65
-94 91 -268 294 -268 311 0 5 58 -49 128 -120 70 -71 152 -145 182 -165z
m2418 149 c-3 -42 -4 -43 -62 -66 -32 -13 -140 -37 -245 -53 -102 -17 -280
-50 -396 -74 -115 -24 -232 -46 -260 -50 -27 -3 -61 -8 -73 -11 -15 -3 -21 -1
-17 6 8 13 -28 12 -222 -3 -175 -14 -193 -2 -42 29 72 14 87 20 75 29 -20 15
133 49 314 70 123 14 820 136 883 154 18 5 36 10 40 10 5 1 7 -18 5 -41z
m-818 -307 c0 -19 -91 -130 -196 -241 -60 -63 -124 -134 -142 -157 -18 -23
-43 -45 -55 -48 -12 -4 -48 -18 -80 -31 -66 -29 -66 -29 -157 47 -65 54 -364
196 -466 221 -46 11 -84 24 -84 28 0 9 51 20 94 20 18 0 101 20 185 45 97 28
190 48 254 55 56 6 129 15 162 21 54 10 389 45 458 48 15 0 27 -3 27 -8z
m1561 -1414 c72 -48 34 -117 -63 -117 -43 0 -54 4 -84 34 -41 41 -42 49 -9 81
33 34 107 35 156 2z m-490 -142 c26 -9 65 -34 88 -58 103 -101 124 -225 62
-351 -59 -120 -170 -209 -262 -210 -91 0 -223 88 -298 199 -89 130 -84 277 11
348 117 88 272 116 399 72z m612 -218 c43 -18 97 -66 97 -86 0 -11 -106 -40
-167 -47 -87 -9 -159 50 -137 113 18 54 106 63 207 20z m-161 -404 c31 -31 31
-32 14 -58 -58 -88 -179 -85 -216 6 -13 31 -12 33 20 62 30 27 38 29 92 25 50
-4 64 -9 90 -35z m-9718 -429 c49 -50 58 -152 20 -227 -29 -56 -132 -153 -185
-177 -68 -29 -106 -21 -126 28 -13 32 -13 43 1 100 28 112 120 272 169 292 45
18 93 11 121 -16z m476 -220 c46 -19 60 -38 60 -86 0 -61 -83 -164 -186 -231
-49 -33 -118 -49 -152 -36 -22 9 -24 13 -19 52 15 110 86 227 171 285 55 37
70 38 126 16z m348 -459 c60 -65 34 -159 -62 -224 -57 -39 -99 -51 -175 -51
-122 0 -169 48 -121 125 31 51 126 131 195 166 76 39 116 35 163 -16z m-926
-39 c95 -39 250 -129 288 -167 49 -48 70 -125 70 -253 0 -76 -4 -105 -19 -135
-43 -83 -174 -188 -287 -231 -190 -71 -470 45 -564 234 -25 49 -30 71 -30 130
0 152 62 289 163 363 112 83 264 106 379 59z"/>
<path d="M11415 4819 c-231 -29 -667 -107 -718 -130 -39 -17 187 -1 353 25
232 37 432 84 445 106 3 6 3 9 -2 9 -4 -1 -39 -5 -78 -10z"/>
</g>
</svg>
